<?xml version="1.0" encoding="utf-8"?>
<!-- Generator: Adobe Illustrator 21.1.0, SVG Export Plug-In . SVG Version: 6.00 Build 0)  -->
<svg version="1.1" id="Layer_1" xmlns="http://www.w3.org/2000/svg" xmlns:xlink="http://www.w3.org/1999/xlink" x="0px" y="0px"
	 viewBox="0 0 150 150" style="enable-background:new 0 0 150 150;" xml:space="preserve">
<style type="text/css">
	.st0{fill:#FFFFFF;}
</style>
<title>marker-11.svg</title>
<title>marker-11.svg</title>
<g id="XMLID_1_">
	<g>
		<path d="M75,2.8c39.8,0,72.2,32.3,72.2,72.2s-32.3,72.2-72.2,72.2S2.8,114.8,2.8,75S35.2,2.8,75,2.8z"/>
		<path class="st0" d="M75,147.2c39.8,0,72.2-32.3,72.2-72.2S114.8,2.8,75,2.8S2.8,35.2,2.8,75S35.2,147.2,75,147.2z M75,0
			c41.3,0,75,33.7,75,75s-33.7,75-75,75S0,116.3,0,75S33.7,0,75,0z"/>
	</g>
</g>
<path class="st0" d="M75,123.3c-19.7,0-35.6-15.9-35.6-35.6c0-18.3,29.1-55.8,32.3-60c0.9-0.9,1.9-1.4,2.8-1.4s2.3,0.5,2.8,1.4
	c3.3,4.2,32.3,41.7,32.3,60C110.6,107.3,94.7,123.3,75,123.3z"/>
<path d="M75,108.3c-1.9,0-3.8-1.9-3.8-3.8s1.9-3.8,3.8-3.8c7,0,12.7-5.6,12.7-12.7c0-1.9,1.9-3.8,3.8-3.8s3.8,1.9,3.8,3.8
	C95.2,99.4,86.2,108.3,75,108.3z"/>
</svg>
